<?xml version="1.0" encoding="utf-8"?>
<!-- Generator: Adobe Illustrator 27.5.0, SVG Export Plug-In . SVG Version: 6.00 Build 0)  -->
<svg version="1.1" xmlns="http://www.w3.org/2000/svg" xmlns:xlink="http://www.w3.org/1999/xlink" x="0px" y="0px"
	 viewBox="0 0 1122 1122" style="enable-background:new 0 0 1122 1122;" xml:space="preserve">
<g id="Bg">
	<g>
		<g>
			<rect style="fill:#FFFFFF;" width="1122" height="1122"/>
		</g>
	</g>
</g>
<g id="Object">
	<g>
		<path style="fill:none;" d="M650.28,653.708l-14.555,14.562l104.573,104.577c2.573,2.551,5.374,4.357,8.412,5.592
			c3.02,1.231,6.295,1.873,9.569,1.849c3.292,0.025,6.585-0.617,9.605-1.849c3.038-1.234,5.834-3.041,8.406-5.592l94.025-94.025
			c2.572-2.569,4.37-5.371,5.598-8.391c1.234-3.047,1.87-6.313,1.87-9.629c0-3.265-0.636-6.536-1.87-9.563
			c-1.228-3.041-3.026-5.837-5.574-8.406L654.026,426.563c-2.542-2.572-5.344-4.382-8.388-5.616
			c-3.026-1.211-6.294-1.849-9.563-1.849c-3.292,0-6.585,0.638-9.605,1.849c-3.044,1.235-5.84,3.044-8.418,5.616l-27.161,27.168
			l59.389,59.413c9.629,9.622,16.976,20.898,21.83,32.887c4.872,11.989,7.292,24.681,7.292,37.387
			c0,12.667-2.421,25.379-7.281,37.387C667.268,632.792,659.921,644.086,650.28,653.708z"/>
		<path style="fill:none;" d="M381.696,349.154c-2.566-2.569-5.369-4.357-8.389-5.592c-3.026-1.231-6.294-1.873-9.586-1.873
			c-3.293,0-6.56,0.641-9.605,1.873c-3.038,1.235-5.84,3.023-8.382,5.592l-87.513,87.507l-6.536,6.545
			c-2.554,2.542-4.369,5.345-5.604,8.386c-1.228,3.026-1.846,6.291-1.846,9.608c0,3.265,0.617,6.536,1.846,9.58
			c1.235,3.023,3.05,5.819,5.604,8.388l216.289,216.289c2.542,2.53,5.344,4.364,8.382,5.598c3.032,1.21,6.3,1.849,9.586,1.849
			c3.293,0,6.567-0.638,9.605-1.849c3.044-1.256,5.846-3.068,8.412-5.598l27.161-27.186l-59.407-59.414
			c-9.629-9.622-16.97-20.873-21.824-32.887c-4.872-11.989-7.275-24.68-7.275-37.365c0-12.688,2.403-25.4,7.275-37.39
			c4.854-12.007,12.195-23.301,21.848-32.923h-0.024l14.561-14.561L381.696,349.154z"/>
		<path style="fill:none;" d="M538.589,506.032l-8.037,8.019l-6.536,6.557c-2.554,2.551-4.345,5.347-5.58,8.391
			c-1.235,3.023-1.864,6.294-1.864,9.605c0,3.268,0.63,6.542,1.864,9.562c1.234,3.044,3.026,5.84,5.58,8.412l59.407,59.389
			l14.562-14.555c2.554-2.554,4.357-5.35,5.592-8.388c1.234-3.045,1.852-6.319,1.852-9.608c0-3.289-0.617-6.564-1.852-9.583
			c-1.234-3.044-3.038-5.84-5.592-8.394L538.589,506.032z"/>
		<path style="fill:#616E7D;" d="M251.685,443.206l6.536-6.545l87.513-87.507c2.542-2.569,5.344-4.357,8.382-5.592
			c3.044-1.231,6.312-1.873,9.605-1.873c3.292,0,6.56,0.641,9.586,1.873c3.02,1.235,5.822,3.023,8.389,5.592L486.275,453.73
			l52.302-52.302L433.991,296.855c-9.616-9.629-20.892-16.967-32.88-21.842c-11.983-4.854-24.705-7.281-37.39-7.281
			c-12.667,0-25.382,2.409-37.384,7.281c-11.989,4.854-23.288,12.201-32.905,21.842l-94.049,94.025
			c-9.647,9.626-16.988,20.937-21.848,32.929c-4.848,11.989-7.274,24.698-7.274,37.39c0,12.685,2.427,25.376,7.274,37.383
			c4.884,11.989,12.201,23.258,21.848,32.887l216.288,216.289c9.623,9.623,20.898,16.964,32.887,21.824
			c11.983,4.872,24.699,7.274,37.383,7.274c12.673,0,25.377-2.403,37.39-7.274c11.989-4.836,23.282-12.201,32.905-21.824
			l27.186-27.186l52.302-52.302l14.555-14.562c9.641-9.622,16.988-20.916,21.842-32.905c4.86-12.007,7.281-24.72,7.281-37.387
			c0-12.706-2.421-25.398-7.292-37.387c-4.854-11.989-12.201-23.264-21.83-32.887l-59.389-59.413l-52.302,52.302l59.395,59.407
			c2.554,2.554,4.357,5.35,5.592,8.394c1.234,3.02,1.852,6.294,1.852,9.583c0,3.289-0.617,6.563-1.852,9.608
			c-1.234,3.038-3.038,5.834-5.592,8.388l-14.562,14.555l-52.302,52.302l-27.161,27.186c-2.566,2.53-5.368,4.342-8.412,5.598
			c-3.038,1.21-6.313,1.849-9.605,1.849c-3.286,0-6.554-0.638-9.586-1.849c-3.038-1.234-5.84-3.068-8.382-5.598L251.685,479.167
			c-2.554-2.569-4.369-5.365-5.604-8.388c-1.228-3.044-1.846-6.316-1.846-9.58c0-3.317,0.617-6.582,1.846-9.608
			C247.316,448.55,249.131,445.748,251.685,443.206z"/>
		<path style="fill:#AAD4C8;" d="M870.314,678.822l-94.025,94.025c-2.572,2.551-5.368,4.357-8.406,5.592
			c-3.02,1.231-6.313,1.873-9.605,1.849c-3.274,0.025-6.549-0.617-9.569-1.849c-3.038-1.234-5.84-3.041-8.412-5.592L635.725,668.27
			l-52.302,52.302l104.58,104.592c9.623,9.623,20.916,16.97,32.881,21.823c11.989,4.872,24.699,7.281,37.396,7.281
			c12.685,0,25.394-2.408,37.383-7.281c12.007-4.854,23.282-12.201,32.929-21.823l94.037-94.043
			c9.635-9.626,16.976-20.938,21.824-32.929c4.884-11.989,7.287-24.699,7.287-37.389c0-12.685-2.403-25.374-7.287-37.366
			c-4.848-12.007-12.189-23.276-21.824-32.905L706.34,374.243c-9.616-9.623-20.886-16.964-32.875-21.824
			c-11.995-4.872-24.704-7.274-37.39-7.274c-12.691,0-25.4,2.403-37.383,7.263c-11.995,4.847-23.288,12.213-32.929,21.836
			l-27.186,27.186l-52.302,52.302l-14.561,14.561h0.024c-9.654,9.623-16.994,20.916-21.848,32.923
			c-4.872,11.989-7.275,24.701-7.275,37.39c0,12.685,2.403,25.376,7.275,37.365c4.854,12.013,12.195,23.264,21.824,32.887
			l59.407,59.414l52.302-52.302l-59.407-59.389c-2.554-2.572-4.345-5.368-5.58-8.412c-1.235-3.02-1.864-6.295-1.864-9.562
			c0-3.311,0.63-6.582,1.864-9.605c1.234-3.044,3.026-5.84,5.58-8.391l6.536-6.557l8.037-8.019l52.302-52.302l27.161-27.168
			c2.578-2.572,5.374-4.382,8.418-5.616c3.02-1.211,6.313-1.849,9.605-1.849c3.268,0,6.536,0.638,9.563,1.849
			c3.044,1.235,5.846,3.044,8.388,5.616l216.313,216.271c2.548,2.569,4.346,5.365,5.574,8.406c1.234,3.026,1.87,6.297,1.87,9.563
			c0,3.316-0.636,6.581-1.87,9.629C874.684,673.451,872.886,676.252,870.314,678.822z"/>
	</g>
</g>
</svg>
